<?xml version="1.0" encoding="UTF-8"?>
<svg width="83px" height="90px" viewBox="0 0 83 90" version="1.1" xmlns="http://www.w3.org/2000/svg" xmlns:xlink="http://www.w3.org/1999/xlink">
    <!-- Generator: Sketch 40.2 (33826) - http://www.bohemiancoding.com/sketch -->
    <title>alarm clock</title>
    <desc>Created with Sketch.</desc>
    <defs>
        <rect id="path-1" x="0" y="0" width="90" height="90"></rect>
    </defs>
    <g id="Page-1" stroke="none" stroke-width="1" fill="none" fill-rule="evenodd">
        <g id="Source-File" transform="translate(-89.000000, -985.000000)">
            <g id="alarm-clock" transform="translate(85.000000, 985.000000)">
                <mask id="mask-2" fill="white">
                    <use xlink:href="#path-1"></use>
                </mask>
                <g id="bg"></g>
                <g id="Alarm-clock" mask="url(#mask-2)" fill="#000000">
                    <g transform="translate(4.000000, -1.000000)" id="Combined-Shape">
                        <path d="M41.5,86.9459459 C63.9704089,86.9459459 82.1862745,68.7953277 82.1862745,46.4054054 C82.1862745,24.0154831 63.9704089,5.86486486 41.5,5.86486486 C19.0295911,5.86486486 0.81372549,24.0154831 0.81372549,46.4054054 C0.81372549,68.7953277 19.0295911,86.9459459 41.5,86.9459459 L41.5,86.9459459 Z M41.5,78.8378378 C59.4763272,78.8378378 74.0490196,64.3173432 74.0490196,46.4054054 C74.0490196,28.4934676 59.4763272,13.972973 41.5,13.972973 C23.5236728,13.972973 8.95098039,28.4934676 8.95098039,46.4054054 C8.95098039,64.3173432 23.5236728,78.8378378 41.5,78.8378378 L41.5,78.8378378 Z"></path>
                        <path d="M20.8553405,6.82834956 L18.0863462,4.05935518 C13.9723325,-0.05465846 7.29439072,-0.05433069 3.17535921,4.06470081 L3.13153067,4.10852935 C-0.987903853,8.22796388 -0.98989415,14.9034371 3.12618504,19.0195163 L4.87537001,20.7687013 C8.99124127,14.9415445 14.4723382,10.1408737 20.8553405,6.82834956 L20.8553405,6.82834956 Z M61.656302,6.57870493 L64.1756518,4.05935518 C68.2896654,-0.05465846 74.9676072,-0.05433069 79.0866387,4.06470081 L79.1304673,4.10852935 C83.2499018,8.22796388 83.2518921,14.9034371 79.1358129,19.0195163 L77.8168928,20.3384364 C73.6309135,14.5583184 68.0892892,9.81753494 61.656302,6.57870493 L61.656302,6.57870493 Z M19.4916665,85.2444668 L15.1127047,89.6234287 C13.5333854,91.2027479 10.9761155,91.2060604 9.39299719,89.6229421 L9.35928306,89.589228 C7.77969511,88.0096401 7.77860424,85.4497128 9.35879654,83.8695205 L12.6929386,80.5353784 C14.8018078,82.3044519 17.0769536,83.8830193 19.4916665,85.2444668 L19.4916665,85.2444668 Z M63.3784815,85.3173945 L67.6845156,89.6234287 C69.2638349,91.2027479 71.8211048,91.2060604 73.4042231,89.6229421 L73.4379372,89.589228 C75.0175252,88.0096401 75.0186161,85.4497128 73.4384238,83.8695205 L70.1966239,80.6277206 C68.0809623,82.3909804 65.7993323,83.963089 63.3784815,85.3173945 L63.3784815,85.3173945 Z"></path>
                        <path d="M45.5686275,26.1397128 C45.5686275,23.8959671 43.7470409,22.0810811 41.5,22.0810811 C39.2575314,22.0810811 37.4313725,23.8981924 37.4313725,26.1397128 L37.4313725,47.2186553 C37.4313725,49.4563005 39.2441361,51.2702703 41.4814948,51.2702703 L54.5215025,51.2702703 C56.7661018,51.2702703 58.5882353,49.4552084 58.5882353,47.2162162 C58.5882353,44.9817799 56.767497,43.1621622 54.5215025,43.1621622 L45.5686275,43.1621622 L45.5686275,26.1397128 L45.5686275,26.1397128 Z"></path>
                    </g>
                </g>
            </g>
        </g>
    </g>
</svg>