<?xml version="1.0" encoding="UTF-8"?>
<svg width="90px" height="75px" viewBox="0 0 90 75" version="1.1" xmlns="http://www.w3.org/2000/svg" xmlns:xlink="http://www.w3.org/1999/xlink">
    <!-- Generator: Sketch 40.2 (33826) - http://www.bohemiancoding.com/sketch -->
    <title>album</title>
    <desc>Created with Sketch.</desc>
    <defs>
        <rect id="path-1" x="0" y="0" width="90" height="90"></rect>
    </defs>
    <g id="Page-1" stroke="none" stroke-width="1" fill="none" fill-rule="evenodd">
        <g id="Source-File" transform="translate(-835.000000, -843.000000)">
            <g id="album" transform="translate(835.000000, 835.000000)">
                <mask id="mask-2" fill="white">
                    <use xlink:href="#path-1"></use>
                </mask>
                <g id="bg"></g>
                <path d="M82.5,70.0625 L82.5,19.2532687 C82.5,17.1831654 80.8233414,15.5 78.7550782,15.5 L11.2449218,15.5 C9.17163718,15.5 7.5,17.1803956 7.5,19.2532687 L7.5,68 L29.2940284,38.033211 C30.5123529,36.3580148 32.4896088,36.3607122 33.7059716,38.033211 L50.25,60.78125 L60.7958572,46.2806964 C62.0131716,44.606889 63.9855721,44.6051617 65.2041428,46.2806964 L82.5,70.0625 L82.5,70.0625 Z M0,15.5000479 C0,11.3578858 3.36384835,8 7.49929294,8 L82.5007071,8 C86.6424522,8 90,11.3560497 90,15.5000479 L90,75.4999521 C90,79.6421142 86.6361517,83 82.5007071,83 L7.49929294,83 C3.35754782,83 0,79.6439503 0,75.4999521 L0,15.5000479 L0,15.5000479 Z M67.5,37.25 C71.6421356,37.25 75,33.8921356 75,29.75 C75,25.6078644 71.6421356,22.25 67.5,22.25 C63.3578644,22.25 60,25.6078644 60,29.75 C60,33.8921356 63.3578644,37.25 67.5,37.25 L67.5,37.25 Z" fill="#000000" mask="url(#mask-2)"></path>
            </g>
        </g>
    </g>
</svg>