<?xml version="1.0" encoding="UTF-8"?>
<svg width="90px" height="90px" viewBox="0 0 90 90" version="1.1" xmlns="http://www.w3.org/2000/svg" xmlns:xlink="http://www.w3.org/1999/xlink">
    <!-- Generator: Sketch 40.2 (33826) - http://www.bohemiancoding.com/sketch -->
    <title>brightness</title>
    <desc>Created with Sketch.</desc>
    <defs>
        <rect id="path-1" x="0" y="0" width="90" height="90"></rect>
    </defs>
    <g id="Page-1" stroke="none" stroke-width="1" fill="none" fill-rule="evenodd">
        <g id="Source-File" transform="translate(-685.000000, -384.000000)">
            <g id="brightness" transform="translate(685.000000, 384.000000)">
                <mask id="mask-2" fill="white">
                    <use xlink:href="#path-1"></use>
                </mask>
                <g id="bg"></g>
                <path d="M40.7142857,4.2812424 C40.7142857,1.91677751 42.6378816,0 45,0 C47.3669346,0 49.2857143,1.92484419 49.2857143,4.2812424 L49.2857143,8.57590045 C49.2857143,10.9403653 47.3621184,12.8571429 45,12.8571429 C42.6330654,12.8571429 40.7142857,10.9322987 40.7142857,8.57590045 L40.7142857,4.2812424 L40.7142857,4.2812424 Z M40.7142857,81.4240995 C40.7142857,79.0596347 42.6378816,77.1428571 45,77.1428571 C47.3669346,77.1428571 49.2857143,79.0677013 49.2857143,81.4240995 L49.2857143,85.7187576 C49.2857143,88.0832225 47.3621184,90 45,90 C42.6330654,90 40.7142857,88.0751558 40.7142857,85.7187576 L40.7142857,81.4240995 L40.7142857,81.4240995 Z M85.7187576,40.7142857 C88.0832225,40.7142857 90,42.6378816 90,45 C90,47.3669346 88.0751558,49.2857143 85.7187576,49.2857143 L81.4240995,49.2857143 C79.0596347,49.2857143 77.1428571,47.3621184 77.1428571,45 C77.1428571,42.6330654 79.0677013,40.7142857 81.4240995,40.7142857 L85.7187576,40.7142857 L85.7187576,40.7142857 Z M8.57590045,40.7142857 C10.9403653,40.7142857 12.8571429,42.6378816 12.8571429,45 C12.8571429,47.3669346 10.9322987,49.2857143 8.57590045,49.2857143 L4.2812424,49.2857143 C1.91677751,49.2857143 0,47.3621184 0,45 C0,42.6330654 1.92484419,40.7142857 4.2812424,40.7142857 L8.57590045,40.7142857 L8.57590045,40.7142857 Z M70.762052,13.1770327 C72.4339811,11.5051036 75.1495352,11.5099249 76.8198052,13.1801948 C78.4934807,14.8538704 78.4891924,17.5717229 76.8229673,19.237948 L73.7861854,22.2747298 C72.1142563,23.946659 69.3987022,23.9418377 67.7284323,22.2715677 C66.0547567,20.5978922 66.059045,17.8800397 67.7252702,16.2138146 L70.762052,13.1770327 L70.762052,13.1770327 Z M16.2138146,67.7252702 C17.8857437,66.053341 20.6012978,66.0581623 22.2715677,67.7284323 C23.9452433,69.4021078 23.940955,72.1199603 22.2747298,73.7861854 L19.237948,76.8229673 C17.5660189,78.4948964 14.8504648,78.4900751 13.1801948,76.8198052 C11.5065193,75.1461296 11.5108076,72.4282771 13.1770327,70.762052 L16.2138146,67.7252702 L16.2138146,67.7252702 Z M76.8229673,70.762052 C78.4948964,72.4339811 78.4900751,75.1495352 76.8198052,76.8198052 C75.1461296,78.4934807 72.4282771,78.4891924 70.762052,76.8229673 L67.7252702,73.7861854 C66.053341,72.1142563 66.0581623,69.3987022 67.7284323,67.7284323 C69.4021078,66.0547567 72.1199603,66.059045 73.7861854,67.7252702 L76.8229673,70.762052 L76.8229673,70.762052 Z M22.2747298,16.2138146 C23.946659,17.8857437 23.9418377,20.6012978 22.2715677,22.2715677 C20.5978922,23.9452433 17.8800397,23.940955 16.2138146,22.2747298 L13.1770327,19.237948 C11.5051036,17.5660189 11.5099249,14.8504648 13.1801948,13.1801948 C14.8538704,11.5065193 17.5717229,11.5108076 19.237948,13.1770327 L22.2747298,16.2138146 L22.2747298,16.2138146 Z M45,70 C58.8071187,70 70,58.8071187 70,45 C70,31.1928813 58.8071187,20 45,20 C31.1928813,20 20,31.1928813 20,45 C20,58.8071187 31.1928813,70 45,70 L45,70 Z" fill="#000000" mask="url(#mask-2)"></path>
            </g>
        </g>
    </g>
</svg>