<?xml version="1.0" encoding="UTF-8"?>
<svg width="90px" height="78px" viewBox="0 0 90 78" version="1.1" xmlns="http://www.w3.org/2000/svg" xmlns:xlink="http://www.w3.org/1999/xlink">
    <!-- Generator: Sketch 40.2 (33826) - http://www.bohemiancoding.com/sketch -->
    <title>camera</title>
    <desc>Created with Sketch.</desc>
    <defs>
        <rect id="path-1" x="0" y="0" width="90" height="90"></rect>
    </defs>
    <g id="Page-1" stroke="none" stroke-width="1" fill="none" fill-rule="evenodd">
        <g id="Source-File" transform="translate(-385.000000, -390.000000)">
            <g id="camera" transform="translate(385.000000, 384.000000)">
                <mask id="mask-2" fill="white">
                    <use xlink:href="#path-1"></use>
                </mask>
                <g id="bg"></g>
                <path d="M7.49929294,15.8446602 C3.36384835,15.8446602 0,19.2341417 0,23.4152791 L0,76.4293811 C0,80.6085158 3.35754782,84 7.49929294,84 L82.5007071,84 C86.6361517,84 90,80.6105185 90,76.4293811 L90,23.4152791 C90,19.2361444 86.6424522,15.8446602 82.5007071,15.8446602 L70.9250897,15.8446602 C68.8547034,15.8446602 66.6178949,14.2401584 66.3846479,13.5699832 C64.9290892,9.38780953 60.392782,6 56.2514438,6 L33.7485562,6 C29.6108768,6 25.0704279,9.38919692 23.6153521,13.5699832 C23.1781216,14.8262526 21.1545267,15.8446602 19.0749103,15.8446602 L7.49929294,15.8446602 L7.49929294,15.8446602 Z M45,72.6407767 C57.4264069,72.6407767 67.5,62.4693817 67.5,49.9223301 C67.5,37.3752785 57.4264069,27.2038835 45,27.2038835 C32.5735931,27.2038835 22.5,37.3752785 22.5,49.9223301 C22.5,62.4693817 32.5735931,72.6407767 45,72.6407767 L45,72.6407767 Z M45,61.2815534 C51.2132034,61.2815534 56.25,56.1958559 56.25,49.9223301 C56.25,43.6488043 51.2132034,38.5631068 45,38.5631068 C38.7867966,38.5631068 33.75,43.6488043 33.75,49.9223301 C33.75,56.1958559 38.7867966,61.2815534 45,61.2815534 L45,61.2815534 Z" fill="#000000" mask="url(#mask-2)"></path>
            </g>
        </g>
    </g>
</svg>