<?xml version="1.0" encoding="UTF-8"?>
<svg width="70px" height="90px" viewBox="0 0 70 90" version="1.1" xmlns="http://www.w3.org/2000/svg" xmlns:xlink="http://www.w3.org/1999/xlink">
    <!-- Generator: Sketch 41.2 (35397) - http://www.bohemiancoding.com/sketch -->
    <title>Combined Shape</title>
    <desc>Created with Sketch.</desc>
    <defs></defs>
    <g id="Page-1" stroke="none" stroke-width="1" fill="none" fill-rule="evenodd">
        <path d="M38.451192,76.8871182 L67.7418341,76.8871182 C70.1603591,76.8871182 70.7021361,75.5298891 68.9687654,73.8556622 L56.239305,61.5605398 C54.5138122,59.893922 55.0579567,58.5290838 57.4722816,58.5290838 L61.694947,58.5290838 C64.1113329,58.5290838 64.6506291,57.1745245 62.9041022,55.503591 L50.9540201,44.0707341 C49.2104408,42.4026207 49.7441821,41.0452414 52.1527484,41.0452414 L56.5275094,41.0452414 C58.9278586,41.0452414 59.4673149,39.7014656 57.7140654,38.0438342 L38.1738214,19.5692693 C36.4280819,17.9187383 33.5779928,17.9116378 31.8247433,19.5692693 L12.2844993,38.0438342 C10.5387598,39.6943652 11.062489,41.0452414 13.4710553,41.0452414 L17.8458163,41.0452414 C20.2461655,41.0452414 20.7910716,42.3998006 19.0445446,44.0707341 L7.09446251,55.503591 C5.35088324,57.1717044 5.88929278,58.5290838 8.30361768,58.5290838 L12.5262831,58.5290838 C14.942669,58.5290838 15.4926304,59.8863128 13.7592597,61.5605398 L1.02979927,73.8556622 C-0.69569353,75.52228 -0.154255619,76.8871182 2.25673056,76.8871182 L29.8214179,76.8871182 L29.8214179,85.6840411 C29.8214179,88.071557 31.7532586,90 34.1363049,90 C36.5145022,90 38.451192,88.0676794 38.451192,85.6840411 L38.451192,76.8871182 Z M29.9322953,67.1148906 C29.1549896,68.2648602 27.8492334,69.0193892 26.3695083,69.0193892 C23.986462,69.0193892 22.0546213,67.0624435 22.0546213,64.6484286 C22.0546213,62.2344137 23.986462,60.277468 26.3695083,60.277468 C28.7525546,60.277468 30.6843953,62.2344137 30.6843953,64.6484286 C30.6843953,64.9990094 30.6436509,65.3399501 30.5666973,65.6666568 C30.272066,66.099593 30.0540324,66.5888416 29.9322953,67.1148906 Z M27.2324857,35.8000887 C28.1857042,35.8000887 28.9584405,35.0173104 28.9584405,34.0517044 C28.9584405,33.0860985 28.1857042,32.3033202 27.2324857,32.3033202 C26.2792672,32.3033202 25.5065309,33.0860985 25.5065309,34.0517044 C25.5065309,35.0173104 26.2792672,35.8000887 27.2324857,35.8000887 Z M47.9439434,60.277468 C48.8971619,60.277468 49.6698982,59.4946897 49.6698982,58.5290838 C49.6698982,57.5634778 48.8971619,56.7806995 47.9439434,56.7806995 C46.9907249,56.7806995 46.2179886,57.5634778 46.2179886,58.5290838 C46.2179886,59.4946897 46.9907249,60.277468 47.9439434,60.277468 Z M38.8826807,38.422665 C40.5508131,38.422665 41.9031016,37.052803 41.9031016,35.3629926 C41.9031016,33.6731822 40.5508131,32.3033202 38.8826807,32.3033202 C37.2145482,32.3033202 35.8622597,33.6731822 35.8622597,35.3629926 C35.8622597,37.052803 37.2145482,38.422665 38.8826807,38.422665 Z M25.0750422,51.5355468 C26.2665653,51.5355468 27.2324857,50.5570739 27.2324857,49.3500665 C27.2324857,48.1430591 26.2665653,47.1645862 25.0750422,47.1645862 C23.883519,47.1645862 22.9175987,48.1430591 22.9175987,49.3500665 C22.9175987,50.5570739 23.883519,51.5355468 25.0750422,51.5355468 Z M43.6290564,71.6419655 C45.0588842,71.6419655 46.2179886,70.4677981 46.2179886,69.0193892 C46.2179886,67.5709802 45.0588842,66.3968128 43.6290564,66.3968128 C42.1992286,66.3968128 41.0401242,67.5709802 41.0401242,69.0193892 C41.0401242,70.4677981 42.1992286,71.6419655 43.6290564,71.6419655 Z M38.8826807,50.6613547 C40.5508131,50.6613547 41.9031016,49.2914927 41.9031016,47.6016823 C41.9031016,45.9118719 40.5508131,44.5420099 38.8826807,44.5420099 C37.2145482,44.5420099 35.8622597,45.9118719 35.8622597,47.6016823 C35.8622597,49.2914927 37.2145482,50.6613547 38.8826807,50.6613547 Z M35.6857704,13.0220898 C34.8300243,12.5663509 33.4522112,12.5612246 32.5868394,13.0220898 L30.6133165,14.0731154 C29.7575704,14.5288543 29.1945013,14.1266549 29.3545087,13.1816165 L29.7419458,10.8933292 C29.9024716,9.94522903 29.4791601,8.63015733 28.7902213,7.94988099 L27.1712843,6.35129972 C26.4851355,5.67377831 26.6937421,5.01195666 27.6612572,4.86954149 L29.8677229,4.54475671 C30.8244762,4.40392564 31.9421248,3.58769027 32.3679124,2.71373882 L33.3684705,0.660040409 C33.7925338,-0.210371781 34.4783518,-0.213911047 34.9041393,0.660040409 L35.9046975,2.71373882 C36.3287607,3.58415101 37.4373719,4.40234154 38.404887,4.54475671 L40.6113527,4.86954149 C41.568106,5.01037256 41.7902643,5.67102338 41.1013256,6.35129972 L39.4823885,7.94988099 C38.7962398,8.62740239 38.3706566,9.94829076 38.530664,10.8933292 L38.9181012,13.1816165 C39.078627,14.1297167 38.5246651,14.5339806 37.6592933,14.0731154 L35.6857704,13.0220898 Z" id="Combined-Shape" fill="#000000"></path>
    </g>
</svg>