<?xml version="1.0" encoding="UTF-8"?>
<svg width="90px" height="68px" viewBox="0 0 90 68" version="1.1" xmlns="http://www.w3.org/2000/svg" xmlns:xlink="http://www.w3.org/1999/xlink">
    <!-- Generator: Sketch 40.2 (33826) - http://www.bohemiancoding.com/sketch -->
    <title>comment</title>
    <desc>Created with Sketch.</desc>
    <defs>
        <rect id="path-1" x="0" y="0" width="90" height="90"></rect>
    </defs>
    <g id="Page-1" stroke="none" stroke-width="1" fill="none" fill-rule="evenodd">
        <g id="Source-File" transform="translate(-1285.000000, -395.000000)">
            <g id="comment" transform="translate(1285.000000, 384.000000)">
                <mask id="mask-2" fill="white">
                    <use xlink:href="#path-1"></use>
                </mask>
                <g id="bg"></g>
                <path d="M45,78.6878895 C51.7084322,78.6878895 58.074011,77.5838775 63.7930484,75.6042534 C66.7165799,74.5922835 75.5691833,80.3800867 78.2845917,78.6878895 C81,76.9956923 76.3801305,69.1939891 78.2845918,67.6207037 C85.5628777,61.6080739 90,53.6157206 90,44.8439447 C90,26.1524502 69.8528137,11 45,11 C20.1471863,11 0,26.1524502 0,44.8439447 C0,63.5354393 20.1471863,78.6878895 45,78.6878895 L45,78.6878895 Z M23.625,53.3049309 C28.2849026,53.3049309 32.0625,49.5168184 32.0625,44.8439447 C32.0625,40.1710711 28.2849026,36.3829586 23.625,36.3829586 C18.9650974,36.3829586 15.1875,40.1710711 15.1875,44.8439447 C15.1875,49.5168184 18.9650974,53.3049309 23.625,53.3049309 L23.625,53.3049309 Z M45,53.3049309 C49.6599026,53.3049309 53.4375,49.5168184 53.4375,44.8439447 C53.4375,40.1710711 49.6599026,36.3829586 45,36.3829586 C40.3400974,36.3829586 36.5625,40.1710711 36.5625,44.8439447 C36.5625,49.5168184 40.3400974,53.3049309 45,53.3049309 L45,53.3049309 Z M66.375,53.3049309 C71.0349026,53.3049309 74.8125,49.5168184 74.8125,44.8439447 C74.8125,40.1710711 71.0349026,36.3829586 66.375,36.3829586 C61.7150974,36.3829586 57.9375,40.1710711 57.9375,44.8439447 C57.9375,49.5168184 61.7150974,53.3049309 66.375,53.3049309 L66.375,53.3049309 Z" fill="#000000" mask="url(#mask-2)"></path>
            </g>
        </g>
    </g>
</svg>