<?xml version="1.0" encoding="UTF-8"?>
<svg width="90px" height="90px" viewBox="0 0 90 90" version="1.1" xmlns="http://www.w3.org/2000/svg" xmlns:xlink="http://www.w3.org/1999/xlink">
    <!-- Generator: Sketch 40.2 (33826) - http://www.bohemiancoding.com/sketch -->
    <title>command</title>
    <desc>Created with Sketch.</desc>
    <defs>
        <rect id="path-1" x="0" y="0" width="90" height="90.9677419"></rect>
    </defs>
    <g id="Page-1" stroke="none" stroke-width="1" fill="none" fill-rule="evenodd">
        <g id="Source-File" transform="translate(-985.000000, -534.000000)">
            <g id="command" transform="translate(985.000000, 534.000000)">
                <mask id="mask-2" fill="white">
                    <use xlink:href="#path-1"></use>
                </mask>
                <g id="bg"></g>
                <path d="M27,54 L27,36 L18,36 C8.05668872,36 0,27.9411255 0,18 C0,8.05668872 8.0588745,0 18,0 C27.9433113,0 36,8.0588745 36,18 L36,27 L54,27 L54,18 C54,8.0588745 62.0566887,0 72,0 C81.9411255,0 90,8.05668872 90,18 C90,27.9411255 81.9433113,36 72,36 L63,36 L63,54 L72,54 C81.9433113,54 90,62.0588745 90,72 C90,81.9433113 81.9411255,90 72,90 C62.0566887,90 54,81.9411255 54,72 L54,63 L36,63 L36,72 C36,81.9411255 27.9433113,90 18,90 C8.0588745,90 0,81.9433113 0,72 C0,62.0588745 8.05668872,54 18,54 L27,54 L27,54 Z M36,36 L54,36 L54,54 L36,54 L36,36 L36,36 Z M63,18 C63,13.0294373 67.0283444,9 72,9 C76.9705627,9 81,13.0283444 81,18 C81,22.9705627 76.9716556,27 72,27 L63,27 L63,18 L63,18 Z M63,72 C63,76.9705627 67.0283444,81 72,81 C76.9705627,81 81,76.9716556 81,72 C81,67.0294373 76.9716556,63 72,63 L63,63 L63,72 L63,72 Z M27,18 C27,13.0294373 22.9716556,9 18,9 C13.0294373,9 9,13.0283444 9,18 C9,22.9705627 13.0283444,27 18,27 L27,27 L27,18 L27,18 Z M27,72 C27,76.9705627 22.9716556,81 18,81 C13.0294373,81 9,76.9716556 9,72 C9,67.0294373 13.0283444,63 18,63 L27,63 L27,72 L27,72 Z" fill="#000000" mask="url(#mask-2)"></path>
            </g>
        </g>
    </g>
</svg>