<?xml version="1.0" encoding="UTF-8"?>
<svg width="92px" height="88px" viewBox="0 0 92 88" version="1.1" xmlns="http://www.w3.org/2000/svg" xmlns:xlink="http://www.w3.org/1999/xlink">
    <!-- Generator: Sketch 41.1 (35376) - http://www.bohemiancoding.com/sketch -->
    <title>Combined Shape</title>
    <desc>Created with Sketch.</desc>
    <defs></defs>
    <g id="Page-1" stroke="none" stroke-width="1" fill="none" fill-rule="evenodd">
        <path d="M5.87442076,4.47899081 C2.63006776,4.47899081 0,7.11655372 0,10.352026 L0,82.1269648 C0,85.3705526 2.63756292,88 5.87303518,88 L77.647974,88 C80.8915618,88 83.5210092,85.3724036 83.5210092,82.1199768 L83.5210092,37.4431252 C83.5210092,34.1956781 81.656701,33.4274103 79.3646739,35.7194373 L72.832558,42.2515532 C72.1460009,42.9381103 71.5894364,44.2837331 71.5894364,45.2575307 L71.5894364,73.1346799 C71.5894364,74.7549438 70.2738691,76.0684273 68.6513424,76.0684273 L14.8696668,76.0684273 C13.2470022,76.0684273 11.9315727,74.7528599 11.9315727,73.1303332 L11.9315727,19.3486576 C11.9315727,17.7259931 13.2384632,16.4105636 14.872158,16.4105636 L46.2855485,16.4105636 C47.2612276,16.4105636 48.6116528,15.8510824 49.2952932,15.167442 L55.8274091,8.63532614 C58.1228897,6.33984552 57.3483661,4.47899081 54.1093237,4.47899081 L5.87442076,4.47899081 Z M81.268211,1.74456605 C83.5956797,-0.582902606 87.37587,-0.576284604 89.7009138,1.74875925 C92.0306983,4.07854375 92.0267627,7.85980635 89.705107,10.181462 L42.4428139,57.4437552 C41.9831985,57.9033706 41.1019454,58.3776947 40.4619111,58.5057015 L32.2131822,60.1554473 C31.5787752,60.2823287 31.1662189,59.8765251 31.2942258,59.2364908 L32.9439716,50.987762 C33.070853,50.353355 33.5500428,49.4627343 34.0059179,49.0068592 L81.268211,1.74456605 Z" id="Combined-Shape" fill="#000000"></path>
    </g>
</svg>