<?xml version="1.0" encoding="UTF-8"?>
<svg width="90px" height="87px" viewBox="0 0 90 87" version="1.1" xmlns="http://www.w3.org/2000/svg" xmlns:xlink="http://www.w3.org/1999/xlink">
    <!-- Generator: Sketch 41.1 (35376) - http://www.bohemiancoding.com/sketch -->
    <title>Combined Shape</title>
    <desc>Created with Sketch.</desc>
    <defs></defs>
    <g id="Page-1" stroke="none" stroke-width="1" fill="none" fill-rule="evenodd">
        <path d="M56.5894865,8.88472783 C59.2952071,6.18000914 58.3972574,3.98740142 54.5695089,3.98740142 L6.91911811,3.98740142 C3.09779469,3.98740142 0,7.09008801 0,10.9044658 L0,80.0829356 C0,83.9031248 3.10383592,87 6.9196267,87 L76.1237225,87 C79.9453268,87 83.0433492,83.909136 83.0433492,80.0792082 L83.0433492,38.2770955 C83.0433492,34.4548477 80.8502716,33.5485692 78.1442087,36.2536301 L70.6708699,43.7242015 C69.8600723,44.5346988 69.202791,46.1224429 69.202791,47.2713923 L69.202791,69.0069566 C69.202791,71.3031414 67.3449599,73.1645669 65.0416255,73.1645669 L18.0017237,73.1645669 C15.7035754,73.1645669 13.8405582,71.3074237 13.8405582,69.0049423 L13.8405582,21.9824591 C13.8405582,19.6851619 15.7063528,17.8228345 17.9860226,17.8228345 L45.5714768,17.8228345 C46.7183469,17.8228345 48.3063166,17.1648305 49.1161477,16.3552992 L56.5894865,8.88472783 Z M73.6097438,6.59634975 L83.3964964,16.3831023 L51.1121721,48.6674266 L41.3254196,38.880674 L73.6097438,6.59634975 Z M78.9984373,1.21562904 C80.6193591,-0.405292777 83.2532609,-0.399424536 84.8697244,1.21703894 L88.78378,5.13109456 C90.4054805,6.75279504 90.4028135,9.38475803 88.7851899,11.0023816 L85.8502513,13.9373202 L76.0634988,4.15056761 L78.9984373,1.21562904 Z M38.8714834,41.3264561 L48.658236,51.1132087 L36.3595375,53.7126495 C35.6086857,53.8713488 35.181537,53.4057273 35.4069993,52.6676624 L38.8714834,41.3264561 Z" id="Combined-Shape" fill="#000000"></path>
    </g>
</svg>