<?xml version="1.0" encoding="UTF-8"?>
<svg width="64px" height="88px" viewBox="0 0 64 88" version="1.1" xmlns="http://www.w3.org/2000/svg" xmlns:xlink="http://www.w3.org/1999/xlink">
    <!-- Generator: Sketch 40.2 (33826) - http://www.bohemiancoding.com/sketch -->
    <title>debates</title>
    <desc>Created with Sketch.</desc>
    <defs>
        <rect id="path-1" x="0" y="0" width="90" height="90"></rect>
    </defs>
    <g id="Page-1" stroke="none" stroke-width="1" fill="none" fill-rule="evenodd">
        <g id="Source-File" transform="translate(-848.000000, -687.000000)">
            <g id="debates" transform="translate(835.000000, 685.000000)">
                <mask id="mask-2" fill="white">
                    <use xlink:href="#path-1"></use>
                </mask>
                <g id="bg"></g>
                <g mask="url(#mask-2)" id="Group">
                    <g transform="translate(13.000000, -1.000000)">
                        <g>
                            <path d="M49.7654781,47.7261702 C49.848011,46.9278118 49.2689508,46.2893082 48.4732196,46.2893082 L15.7265131,46.2893082 C14.9345241,46.2893082 14.3522181,46.9326132 14.4342546,47.7261702 L17.8148795,80.427673 C14.5783404,80.427673 12,83.0182266 12,86.2138365 L12,89.1096647 C12,90.6950021 13.2879431,92 14.8767014,92 L49.1232986,92 C50.7144321,92 52,90.7059528 52,89.1096647 L52,86.2138365 C52,83.0706971 49.4983122,80.5026643 46.3846864,80.4292857 L49.7654781,47.7261702 L49.7654781,47.7261702 Z M50.652194,63.0691824 L54.7569561,63.0691824 C56.3295747,63.0691824 57.918189,61.7738973 58.293819,60.1760822 L63.7348818,37.031465 C64.1095677,35.4376657 62.79773,34.1383648 60.8027016,34.1383648 L2.99608848,34.1383648 C1.00751764,34.1383648 -0.311721685,35.4336499 0.0639083095,37.031465 L5.50497106,60.1760822 C5.87965697,61.7698815 7.46410853,63.0691824 9.04183401,63.0691824 L13.347806,63.0691824 L11.403262,46.8536765 C11.2125988,45.2637405 12.3459137,43.9748428 13.9368877,43.9748428 L50.0631123,43.9748428 C51.6530583,43.9748428 52.7868269,45.2685301 52.596738,46.8536765 L50.652194,63.0691824 L50.652194,63.0691824 L50.652194,63.0691824 Z M32,57.7231677 L29.1747018,59.2442617 L29.7142857,56.022533 L27.4285714,53.7408921 L30.5873509,53.2708482 L32,50.3396226 L33.4126491,53.2708482 L36.5714286,53.7408921 L34.2857143,56.022533 L34.8252982,59.2442617 L32,57.7231677 L32,57.7231677 L32,57.7231677 Z M32,68.6041815 L29.1747018,70.1252755 L29.7142857,66.9035468 L27.4285714,64.6219059 L30.5873509,64.151862 L32,61.2206365 L33.4126491,64.151862 L36.5714286,64.6219059 L34.2857143,66.9035468 L34.8252982,70.1252755 L32,68.6041815 L32,68.6041815 L32,68.6041815 Z M32,79.4851954 L29.1747018,81.0062893 L29.7142857,77.7845606 L27.4285714,75.5029197 L30.5873509,75.0328759 L32,72.1016503 L33.4126491,75.0328759 L36.5714286,75.5029197 L34.2857143,77.7845606 L34.8252982,81.0062893 L32,79.4851954 L32,79.4851954 L32,79.4851954 Z" id="Combined-Shape" fill="#000000"></path>
                            <path d="M44.698422,16.7846829 C46.7322795,15.3159314 48.0584518,12.9072726 48.0584518,10.1849735 C48.0584518,5.7111196 44.4767298,2.08434449 40.0584518,2.08434449 C35.6401738,2.08434449 32.0584518,5.7111196 32.0584518,10.1849735 C32.0584518,12.9072726 33.3846242,15.3159314 35.4184817,16.7846829 L36.2169295,23.4945549 C36.4450425,25.4115355 38.1649041,26.9648477 40.0584518,26.9648477 C41.9481466,26.9648477 43.6719077,25.4111447 43.8999742,23.4945549 L44.698422,16.7846829 L44.698422,16.7846829 Z" id="Combined-Shape" fill="#000000" transform="translate(40.058452, 14.524596) rotate(-45.000000) translate(-40.058452, -14.524596) "></path>
                            <path d="M46.8571429,21.408805 C46.8571429,21.408805 55.1760796,28.3522013 52.5714286,37.0314465" id="Path" stroke="#000000" stroke-width="3"></path>
                        </g>
                    </g>
                </g>
            </g>
        </g>
    </g>
</svg>