<?xml version="1.0" encoding="UTF-8"?>
<svg width="83px" height="90px" viewBox="0 0 83 90" version="1.1" xmlns="http://www.w3.org/2000/svg" xmlns:xlink="http://www.w3.org/1999/xlink">
    <!-- Generator: Sketch 40.2 (33826) - http://www.bohemiancoding.com/sketch -->
    <title>download</title>
    <desc>Created with Sketch.</desc>
    <defs>
        <rect id="path-1" x="0" y="0" width="90" height="90"></rect>
    </defs>
    <g id="Page-1" stroke="none" stroke-width="1" fill="none" fill-rule="evenodd">
        <g id="Source-File" transform="translate(-239.000000, -835.000000)">
            <g id="download" transform="translate(235.000000, 835.000000)">
                <mask id="mask-2" fill="white">
                    <use xlink:href="#path-1"></use>
                </mask>
                <g id="bg"></g>
                <path d="M30.7517164,35.0566003 C28.0463418,32.3512257 23.6598799,32.344155 20.9587536,35.0452813 C18.2570333,37.7470016 18.2626949,42.1308665 20.9700726,44.8382441 L40.5587235,64.426895 C43.2627009,67.1308725 47.645979,67.1316082 50.3583891,64.419198 L69.9044786,44.8731085 C72.606001,42.1715862 72.6068212,37.78513 69.9018432,35.0801519 C67.1962704,32.3745791 62.8124091,32.3739939 60.1088866,35.0775165 L52.2506821,42.935721 L52.2250251,6.92452361 C52.2223036,3.1047698 49.12119,0.00272535867 45.298497,1.79647366e-06 C41.4749634,-0.00272236463 38.3791061,3.09307648 38.3818289,6.91466072 L38.4073336,42.7122175 L30.7517164,35.0566003 L30.7517164,35.0566003 Z M4,83.0498363 C4,79.2244197 7.1022157,76.1233068 10.9337736,76.1233068 L80.0662264,76.1233068 C83.8956438,76.1233068 87,79.2322037 87,83.0498363 C87,86.875253 83.8977843,89.9763659 80.0662264,89.9763659 L10.9337736,89.9763659 C7.10435619,89.9763659 4,86.867469 4,83.0498363 L4,83.0498363 Z" fill="#000000" mask="url(#mask-2)"></path>
            </g>
        </g>
    </g>
</svg>