<?xml version="1.0" encoding="UTF-8"?>
<svg width="90px" height="66px" viewBox="0 0 90 66" version="1.1" xmlns="http://www.w3.org/2000/svg" xmlns:xlink="http://www.w3.org/1999/xlink">
    <!-- Generator: Sketch 40.2 (33826) - http://www.bohemiancoding.com/sketch -->
    <title>Email</title>
    <desc>Created with Sketch.</desc>
    <defs>
        <rect id="path-1" x="0" y="0" width="90" height="90"></rect>
    </defs>
    <g id="Page-1" stroke="none" stroke-width="1" fill="none" fill-rule="evenodd">
        <g id="Source-File" transform="translate(-385.000000, -697.000000)">
            <g id="Email" transform="translate(385.000000, 685.000000)">
                <mask id="mask-2" fill="white">
                    <use xlink:href="#path-1"></use>
                </mask>
                <g id="bg"></g>
                <g mask="url(#mask-2)" fill="#000000">
                    <g transform="translate(0.000000, 12.000000)">
                        <path d="M0,6.6 L90,6.6 L90,62.700483 C90,64.5227559 88.5129713,66 86.6901152,66 L3.30988482,66 C1.48188591,66 0,64.5168575 0,62.700483 L0,6.6 L0,6.6 Z M42.3364499,37.6467299 C43.807488,38.7254912 46.1920499,38.7258301 47.6635501,37.6467299 L90,6.6 L0,6.6 L42.3364499,37.6467299 L42.3364499,37.6467299 Z" id="Combined-Shape"></path>
                        <path d="M42.3364499,0.809198027 C43.807488,-0.269563233 46.1920499,-0.269902105 47.6635501,0.809198027 L87.3364499,29.9026579 C88.807488,30.9814192 88.5129713,31.855928 86.6901152,31.855928 L3.30988482,31.855928 C1.48188591,31.855928 1.19204989,30.9817581 2.66355007,29.9026579 L42.3364499,0.809198027 L42.3364499,0.809198027 Z" id="Triangle-Copy" transform="translate(44.999092, 15.927964) scale(1, -1) translate(-44.999092, -15.927964) "></path>
                    </g>
                </g>
            </g>
        </g>
    </g>
</svg>