<?xml version="1.0" encoding="UTF-8"?>
<svg width="90px" height="57px" viewBox="0 0 90 57" version="1.1" xmlns="http://www.w3.org/2000/svg" xmlns:xlink="http://www.w3.org/1999/xlink">
    <!-- Generator: Sketch 40.2 (33826) - http://www.bohemiancoding.com/sketch -->
    <title>eye</title>
    <desc>Created with Sketch.</desc>
    <defs>
        <rect id="path-1" x="0" y="0" width="90" height="90"></rect>
    </defs>
    <g id="Page-1" stroke="none" stroke-width="1" fill="none" fill-rule="evenodd">
        <g id="Source-File" transform="translate(-985.000000, -852.000000)">
            <g id="eye" transform="translate(985.000000, 835.000000)">
                <mask id="mask-2" fill="white">
                    <use xlink:href="#path-1"></use>
                </mask>
                <g id="bg"></g>
                <path d="M52.9752186,43.6736409 C53.1104042,44.2607564 53.1818182,44.8720781 53.1818182,45.5 C53.1818182,49.9971758 49.5186934,53.6428571 45,53.6428571 C40.4813066,53.6428571 36.8181818,49.9971758 36.8181818,45.5 C36.8181818,41.0028242 40.4813066,37.3571429 45,37.3571429 C45.9167302,37.3571429 46.7982467,37.5071929 47.6211063,37.7839615 C46.6375539,38.5126953 46,39.6818933 46,41 C46,43.209139 47.790861,45 50,45 C51.1812974,45 52.2429931,44.4879241 52.9752186,43.6736409 L52.9752186,43.6736409 Z M90,45.5 C90,45.5 69.8528137,17 45,17 C20.1471863,17 0,45.5 0,45.5 C0,45.5 20.1471863,74 45,74 C69.8528137,74 90,45.5 90,45.5 Z M45,61.7857143 C54.0373868,61.7857143 61.3636364,54.4943516 61.3636364,45.5 C61.3636364,36.5056484 54.0373868,29.2142857 45,29.2142857 C35.9626132,29.2142857 28.6363636,36.5056484 28.6363636,45.5 C28.6363636,54.4943516 35.9626132,61.7857143 45,61.7857143 L45,61.7857143 Z" fill="#000000" mask="url(#mask-2)"></path>
            </g>
        </g>
    </g>
</svg>