<?xml version="1.0" encoding="UTF-8"?>
<svg width="90px" height="77px" viewBox="0 0 90 77" version="1.1" xmlns="http://www.w3.org/2000/svg" xmlns:xlink="http://www.w3.org/1999/xlink">
    <!-- Generator: Sketch 41 (35326) - http://www.bohemiancoding.com/sketch -->
    <title>Combined Shape</title>
    <desc>Created with Sketch.</desc>
    <defs></defs>
    <g id="Page-1" stroke="none" stroke-width="1" fill="none" fill-rule="evenodd">
        <path d="M78.75,10.9370556 L78.75,0 L71.25,0 L71.25,10.9370556 C64.780398,12.5968273 60,18.4506973 60,25.4174757 C60,32.3842542 64.780398,38.2381242 71.25,39.8978958 L71.25,77 L78.75,77 L78.75,39.8978958 C85.219602,38.2381242 90,32.3842542 90,25.4174757 C90,18.4506973 85.219602,12.5968273 78.75,10.9370556 Z M48.75,66.0629444 L48.75,77 L41.25,77 L41.25,66.0629444 C34.780398,64.4031727 30,58.5493027 30,51.5825243 C30,44.6157458 34.780398,38.7618758 41.25,37.1021042 L41.25,0 L48.75,0 L48.75,37.1021042 C55.219602,38.7618758 60,44.6157458 60,51.5825243 C60,58.5493027 55.219602,64.4031727 48.75,66.0629444 Z M18.75,10.9370556 L18.75,0 L11.25,0 L11.25,10.9370556 C4.78039795,12.5968273 0,18.4506973 0,25.4174757 C0,32.3842542 4.78039795,38.2381242 11.25,39.8978958 L11.25,77 L18.75,77 L18.75,39.8978958 C25.219602,38.2381242 30,32.3842542 30,25.4174757 C30,18.4506973 25.219602,12.5968273 18.75,10.9370556 Z M15,32.8932039 C19.1421356,32.8932039 22.5,29.5462064 22.5,25.4174757 C22.5,21.2887451 19.1421356,17.9417476 15,17.9417476 C10.8578644,17.9417476 7.5,21.2887451 7.5,25.4174757 C7.5,29.5462064 10.8578644,32.8932039 15,32.8932039 Z M45,44.1067961 C49.1421356,44.1067961 52.5,47.4537936 52.5,51.5825243 C52.5,55.7112549 49.1421356,59.0582524 45,59.0582524 C40.8578644,59.0582524 37.5,55.7112549 37.5,51.5825243 C37.5,47.4537936 40.8578644,44.1067961 45,44.1067961 Z M75,32.8932039 C79.1421356,32.8932039 82.5,29.5462064 82.5,25.4174757 C82.5,21.2887451 79.1421356,17.9417476 75,17.9417476 C70.8578644,17.9417476 67.5,21.2887451 67.5,25.4174757 C67.5,29.5462064 70.8578644,32.8932039 75,32.8932039 Z" id="Combined-Shape" fill="#000000"></path>
    </g>
</svg>