<?xml version="1.0" encoding="UTF-8"?>
<svg width="82px" height="86px" viewBox="0 0 82 86" version="1.1" xmlns="http://www.w3.org/2000/svg" xmlns:xlink="http://www.w3.org/1999/xlink">
    <!-- Generator: Sketch 40.2 (33826) - http://www.bohemiancoding.com/sketch -->
    <title>flight</title>
    <desc>Created with Sketch.</desc>
    <defs>
        <rect id="path-1" x="0" y="0" width="90" height="90"></rect>
    </defs>
    <g id="Page-1" stroke="none" stroke-width="1" fill="none" fill-rule="evenodd">
        <g id="Source-File" transform="translate(-390.000000, -536.000000)">
            <g id="flight" transform="translate(386.000000, 534.000000)">
                <mask id="mask-2" fill="white">
                    <use xlink:href="#path-1"></use>
                </mask>
                <g id="bg"></g>
                <path d="M39.3898226,73.4964822 C37.3522284,68.7824441 35.5634156,61.7903144 34.355225,53.5800927 L4.40400572,56.8856052 C3.07631002,57.0321339 2,56.0794241 2,54.7355026 L2,48.1768526 C2,46.842855 2.98923355,45.3247364 4.20638385,44.787422 L32.930722,32.1069821 C33.4753771,15.9188418 38.2967183,4 45,4 C51.7032817,4 56.5246229,15.9188418 57.069278,32.1069821 L85.7936161,44.787422 C87.0121683,45.3253552 88,46.8329312 88,48.1768526 L88,54.7355026 C88,56.0695002 86.9155667,57.0312374 85.5959943,56.8856052 L55.644775,53.5800927 C54.4518121,61.6868346 52.6927709,68.6059962 50.6871023,73.3171548 L65.8586647,80.0146836 C66.3462815,80.2299435 66.741573,80.8324772 66.741573,81.3704813 L66.741573,85.133152 C66.741573,85.6666786 66.3121024,86.0517896 65.7900033,85.994169 L46.1931428,83.8313967 C45.6676053,83.7733967 44.8121024,83.7737762 44.2900033,83.8313967 L24.6931428,85.994169 C24.1676053,86.052169 23.741573,85.6711561 23.741573,85.133152 L23.741573,81.3704813 C23.741573,80.8369547 24.1330991,80.2316057 24.6244813,80.0146836 L39.3898226,73.4964822 L39.3898226,73.4964822 Z" fill="#000000" mask="url(#mask-2)" transform="translate(45.000000, 45.000000) rotate(90.000000) translate(-45.000000, -45.000000) "></path>
            </g>
        </g>
    </g>
</svg>