<?xml version="1.0" encoding="UTF-8"?>
<svg width="90px" height="84px" viewBox="0 0 90 84" version="1.1" xmlns="http://www.w3.org/2000/svg" xmlns:xlink="http://www.w3.org/1999/xlink">
    <!-- Generator: Sketch 40.2 (33826) - http://www.bohemiancoding.com/sketch -->
    <title>floder</title>
    <desc>Created with Sketch.</desc>
    <defs>
        <rect id="path-1" x="0" y="0" width="90" height="90"></rect>
    </defs>
    <g id="Page-1" stroke="none" stroke-width="1" fill="none" fill-rule="evenodd">
        <g id="Source-File" transform="translate(-535.000000, -688.000000)">
            <g id="floder" transform="translate(535.000000, 685.000000)">
                <mask id="mask-2" fill="white">
                    <use xlink:href="#path-1"></use>
                </mask>
                <g id="bg"></g>
                <path d="M87.4848677,32.2645161 C88.964334,32.2645161 90.0879608,33.4715358 89.9945761,34.9601875 L86.8991641,84.3043286 C86.8057713,85.7931068 85.5342088,87 84.0477213,87 L5.95231268,87 C4.47089707,87 3.19425477,85.7929803 3.10087001,84.3043286 L0.00545791511,34.9601875 C-0.0879347756,33.4714094 1.02814879,32.2645161 2.51516633,32.2645161 L87.4848677,32.2645161 L87.4848677,32.2645161 Z M5.29784202,5.71022114 C5.23627287,4.21340734 6.38175311,3 7.8538626,3 L30.3388895,3 C31.8121098,3 33.987899,3.69964391 35.2002779,4.56385837 L46.5695504,12.6681649 C47.056586,13.0153362 47.9316501,13.2967741 48.5163906,13.2967741 L81.6818717,13.2967741 C83.1645211,13.2967741 84.2842612,14.5038967 84.1825061,15.9984731 L83.4803844,26.3112043 C83.3787972,27.8033114 82.1017901,29.0129032 80.622178,29.0129032 L8.93062895,29.0129032 C7.45367229,29.0129032 6.20618913,27.7931371 6.14488153,26.3026821 L5.29784202,5.71022114 L5.29784202,5.71022114 Z" fill="#000000" mask="url(#mask-2)"></path>
            </g>
        </g>
    </g>
</svg>