<?xml version="1.0" encoding="UTF-8"?>
<svg width="90px" height="89px" viewBox="0 0 90 89" version="1.1" xmlns="http://www.w3.org/2000/svg" xmlns:xlink="http://www.w3.org/1999/xlink">
    <!-- Generator: Sketch 40.2 (33826) - http://www.bohemiancoding.com/sketch -->
    <title>fullscreen</title>
    <desc>Created with Sketch.</desc>
    <defs>
        <rect id="path-1" x="0" y="0" width="90" height="90"></rect>
    </defs>
    <g id="Page-1" stroke="none" stroke-width="1" fill="none" fill-rule="evenodd">
        <g id="Source-File" transform="translate(-234.000000, -385.000000)">
            <g id="fullscreen" transform="translate(234.000000, 384.000000)">
                <mask id="mask-2" fill="white">
                    <use xlink:href="#path-1"></use>
                </mask>
                <g id="bg"></g>
                <path d="M68.8648539,32.7417479 L82.123106,19.4834957 L71.5165043,8.87689399 L58.2582521,22.1351461 L68.8648539,32.7417479 L68.8648539,32.7417479 L68.8648539,32.7417479 Z M31.7417479,22.1351461 L18.4834957,8.87689399 L7.87689399,19.4834957 L21.1351461,32.7417479 L31.7417479,22.1351461 L31.7417479,22.1351461 L31.7417479,22.1351461 Z M21.1351461,59.2582521 L7.87689399,72.5165043 L18.4834957,83.123106 L31.7417479,69.8648539 L21.1351461,59.2582521 L21.1351461,59.2582521 L21.1351461,59.2582521 Z M58.2582521,69.8648539 L71.5165043,83.123106 L82.123106,72.5165043 L68.8648539,59.2582521 L58.2582521,69.8648539 L58.2582521,69.8648539 L58.2582521,69.8648539 Z M26.3603897,1 L0,1 L0,27.3603897 L26.3603897,1 L26.3603897,1 L26.3603897,1 Z M63.6396103,1 L90,1 L90,27.3603897 L63.6396103,1 L63.6396103,1 L63.6396103,1 Z M90,64.6396103 L90,91 L63.6396103,91 L90,64.6396103 L90,64.6396103 L90,64.6396103 Z M26.3603897,91 L0,91 L0,64.6396103 L26.3603897,91 L26.3603897,91 L26.3603897,91 Z" fill="#000000" mask="url(#mask-2)"></path>
            </g>
        </g>
    </g>
</svg>