<?xml version="1.0" encoding="UTF-8"?>
<svg width="90px" height="90px" viewBox="0 0 90 90" version="1.1" xmlns="http://www.w3.org/2000/svg" xmlns:xlink="http://www.w3.org/1999/xlink">
    <!-- Generator: Sketch 40.2 (33826) - http://www.bohemiancoding.com/sketch -->
    <title>gear</title>
    <desc>Created with Sketch.</desc>
    <defs>
        <rect id="path-1" x="0" y="0" width="90" height="90"></rect>
    </defs>
    <g id="Page-1" stroke="none" stroke-width="1" fill="none" fill-rule="evenodd">
        <g id="Source-File" transform="translate(-85.000000, -534.000000)">
            <g id="gear" transform="translate(85.000000, 534.000000)">
                <mask id="mask-2" fill="white">
                    <use xlink:href="#path-1"></use>
                </mask>
                <g id="bg"></g>
                <path d="M8.52223566,50.5047998 C8.92573849,53.2806568 9.63795822,55.9564516 10.6229417,58.496231 L3.7203051,63.5014711 L8.33740856,71.4985289 L16.0858322,68.040055 C17.8113677,70.2217671 19.7779642,72.2040666 21.9454072,73.9467386 L18.5014711,81.6625914 L26.4985289,86.2796949 L31.4290457,79.4801079 C33.9953754,80.5007887 36.7031627,81.2420752 39.51485,81.6664098 L40.3828965,90 L49.6171035,90 L50.4828502,81.6884892 C53.306196,81.2741304 56.0257131,80.540348 58.6035219,79.5250213 L63.5014711,86.2796949 L71.4985289,81.6625914 L68.0930545,74.0329088 C70.2870311,72.2822794 72.2771426,70.2869373 74.0220594,68.0882119 L81.6625914,71.4985289 L86.2796949,63.5014711 L79.4909573,58.5788214 C80.4944381,56.0097776 81.2185827,53.3008416 81.6260504,50.489354 L90,49.6171035 L90,40.3828965 L81.5821394,39.5060722 C81.1550004,36.7176867 80.416053,34.0319856 79.4020066,31.4856785 L86.2796949,26.4985289 L81.6625914,18.5014711 L73.851148,21.9880736 C72.1220407,19.8419624 70.1577842,17.8932716 67.9975155,16.1811384 L71.4985289,8.33740856 L63.5014711,3.7203051 L58.4396842,10.7009243 C55.9199309,9.72239801 53.2661688,9.0123958 50.5135301,8.60604996 L49.6171035,0 L40.3828965,0 L39.4841566,8.62825894 C36.7430744,9.04429843 34.1009228,9.7616038 31.5925285,10.7453482 L26.4985289,3.7203051 L18.5014711,8.33740856 L22.0407553,16.2668809 C19.9068621,17.9710419 17.966027,19.9067834 16.2563158,22.0360396 L8.33740856,18.5014711 L3.7203051,26.4985289 L10.7114028,31.5679139 C9.71598983,34.0850768 8.98916811,36.7377559 8.56627625,39.4906128 L-5.68434189e-14,40.3828965 L-5.68434189e-14,49.6171035 L8.52223566,50.5047998 L8.52223566,50.5047998 Z M66,63.630013 C60.8589276,69.9664914 53.1124465,74 44.4475788,74 C35.8414111,74 28.1412289,70.0209561 23,63.7584744 L44.542633,51 L44.6742736,51 L66,63.630013 L66,63.630013 Z M72.1182697,55 C73.3340183,51.8648415 74,48.4618343 74,44.9055194 C74,30.8617328 63.6144314,19.2086862 50,17 L50,42.4139501 L72.1182697,55 L72.1182697,55 Z M18.9417084,55 C17.6879026,51.8353494 17,48.3932222 17,44.7933773 C17,30.8060275 27.3855685,19.1998103 41,17 L41,42.4985213 L18.9417084,55 L18.9417084,55 Z" fill="#000000" mask="url(#mask-2)" transform="translate(45.000000, 45.000000) rotate(-45.000000) translate(-45.000000, -45.000000) "></path>
            </g>
        </g>
    </g>
</svg>