<?xml version="1.0" encoding="UTF-8"?>
<svg width="86px" height="80px" viewBox="0 0 86 80" version="1.1" xmlns="http://www.w3.org/2000/svg" xmlns:xlink="http://www.w3.org/1999/xlink">
    <!-- Generator: Sketch 40.2 (33826) - http://www.bohemiancoding.com/sketch -->
    <title>headphone</title>
    <desc>Created with Sketch.</desc>
    <defs>
        <rect id="path-1" x="0" y="0" width="90" height="90"></rect>
    </defs>
    <g id="Page-1" stroke="none" stroke-width="1" fill="none" fill-rule="evenodd">
        <g id="Source-File" transform="translate(-687.000000, -838.000000)">
            <g id="headphone" transform="translate(685.000000, 835.000000)">
                <mask id="mask-2" fill="white">
                    <use xlink:href="#path-1"></use>
                </mask>
                <g id="bg"></g>
                <g id="Headphones" mask="url(#mask-2)">
                    <g transform="translate(3.000000, 8.000000)">
                        <path d="M4.08333333,52.0112522 L4.08333333,37.9887478 C4.08333333,17.0081417 21.0545989,0 42,0 C62.9407968,0 79.9166667,17.0076453 79.9166667,37.9887478 L79.9166667,52.0112522" id="Rectangle" stroke="#000000" stroke-width="8.18181818" fill="none"></path>
                        <path d="M0,51.997921 C0,48.1330759 3.14187327,45 7,45 L14,45 L14,68.3766234 L7,68.3766234 C3.13400675,68.3766234 0,65.2482043 0,61.3787024 L0,51.997921 L0,51.997921 Z M14,45.5668959 C14,42.0261698 16.8800505,39.1558442 20.4166667,39.1558442 C23.9604938,39.1558442 26.8333333,42.025355 26.8333333,45.5668959 L26.8333333,67.8097275 C26.8333333,71.3504536 23.9532828,74.2207792 20.4166667,74.2207792 C16.8728395,74.2207792 14,71.3512684 14,67.8097275 L14,45.5668959 L14,45.5668959 Z M84,51.997921 C84,48.1330759 80.8581267,45 77,45 L70,45 L70,68.3766234 L77,68.3766234 C80.8659932,68.3766234 84,65.2482043 84,61.3787024 L84,51.997921 L84,51.997921 Z M70,45.5668959 C70,42.0261698 67.1199495,39.1558442 63.5833333,39.1558442 C60.0395062,39.1558442 57.1666667,42.025355 57.1666667,45.5668959 L57.1666667,67.8097275 C57.1666667,71.3504536 60.0467172,74.2207792 63.5833333,74.2207792 C67.1271605,74.2207792 70,71.3512684 70,67.8097275 L70,45.5668959 L70,45.5668959 Z" id="Combined-Shape" stroke="none" fill="#000000" fill-rule="evenodd"></path>
                    </g>
                </g>
            </g>
        </g>
    </g>
</svg>