<?xml version="1.0" encoding="UTF-8"?>
<svg width="62px" height="90px" viewBox="0 0 62 90" version="1.1" xmlns="http://www.w3.org/2000/svg" xmlns:xlink="http://www.w3.org/1999/xlink">
    <!-- Generator: Sketch 41.1 (35376) - http://www.bohemiancoding.com/sketch -->
    <title>Combined Shape</title>
    <desc>Created with Sketch.</desc>
    <defs></defs>
    <g id="Page-1" stroke="none" stroke-width="1" fill="none" fill-rule="evenodd">
        <path d="M62,30.7692308 C62,13.7758539 48.1208272,0 31,0 C13.8791728,0 0,13.7758539 0,30.7692308 C0,39.0821699 6.70754301,48.8935921 6.70754301,48.8935921 C7.81830038,50.6987646 9.02154256,53.8603402 9.39280481,55.9425228 L10.5448841,62.4038297 C11.1414156,65.7494099 14.3807399,68.4615385 17.7864629,68.4615385 L44.2135371,68.4615385 C47.6164191,68.4615385 50.858171,65.7517285 51.4551159,62.4038297 L52.6071952,55.9425228 C52.979467,53.8546784 54.2060572,50.7060729 55.292457,48.8935921 C55.292457,48.8935921 62,39.0821699 62,30.7692308 Z M12.4,74.6153846 C12.4,72.9160469 13.7680857,71.5384615 15.4758809,71.5384615 L46.5241191,71.5384615 C48.2228812,71.5384615 49.6,72.9195047 49.6,74.6153846 C49.6,76.3147223 48.2319143,77.6923077 46.5241191,77.6923077 L15.4758809,77.6923077 C13.7771188,77.6923077 12.4,76.3112645 12.4,74.6153846 Z M31.0144036,90 C22.0764189,90 17.336677,83.9459379 17.336677,83.9459379 C15.5009073,82.191491 16.0873723,80.7692308 18.6312254,80.7692308 L43.3775002,80.7692308 C45.9282293,80.7692308 46.5573527,82.2523135 44.6636104,83.9588634 C44.6636104,83.9588634 39.9523884,90 31.0144036,90 Z" id="Combined-Shape" fill="#000000"></path>
    </g>
</svg>