<?xml version="1.0" encoding="UTF-8"?>
<svg width="82px" height="90px" viewBox="0 0 82 90" version="1.1" xmlns="http://www.w3.org/2000/svg" xmlns:xlink="http://www.w3.org/1999/xlink">
    <!-- Generator: Sketch 40.2 (33826) - http://www.bohemiancoding.com/sketch -->
    <title>lock</title>
    <desc>Created with Sketch.</desc>
    <defs>
        <rect id="path-1" x="0" y="0" width="90" height="90.9677419"></rect>
    </defs>
    <g id="Page-1" stroke="none" stroke-width="1" fill="none" fill-rule="evenodd">
        <g id="Source-File" transform="translate(-1289.000000, -535.000000)">
            <g id="lock" transform="translate(1285.000000, 534.000000)">
                <mask id="mask-2" fill="white">
                    <use xlink:href="#path-1"></use>
                </mask>
                <g id="bg"></g>
                <path d="M50.3500362,64.9485638 C53.09834,63.1836582 54.9193548,60.0987597 54.9193548,56.5882353 C54.9193548,51.105997 50.4783084,46.6617647 45,46.6617647 C39.5216916,46.6617647 35.0806452,51.105997 35.0806452,56.5882353 C35.0806452,60.1991504 37.0073005,63.3597481 39.8879981,65.0967178 L38.3870968,75.1176471 L51.8731275,75.1176471 L50.3500362,64.9485638 L50.3500362,64.9485638 Z M54.9193548,30.7794118 L54.9193548,20.8529412 C54.9193548,15.3707029 50.4783084,10.9264706 45,10.9264706 C39.5216916,10.9264706 35.0806452,15.3707029 35.0806452,20.8529412 L35.0806452,30.7794118 L54.9193548,30.7794118 L54.9193548,30.7794118 Z M64.8387097,30.7794118 L64.8387097,20.8529412 C64.8387097,9.88846453 55.9566168,1 45,1 C34.0433832,1 25.1612903,9.88846453 25.1612903,20.8529412 L25.1612903,30.7794118 L11.9370115,30.7794118 C7.5497571,30.7794118 4,34.331905 4,38.7141276 L4,83.0652842 C4,87.4355433 7.55352107,91 11.9370115,91 L78.0629885,91 C82.4502429,91 86,87.4475067 86,83.0652842 L86,38.7141276 C86,34.3438685 82.4464789,30.7794118 78.0629885,30.7794118 L64.8387097,30.7794118 L64.8387097,30.7794118 Z" fill="#000000" mask="url(#mask-2)"></path>
            </g>
        </g>
    </g>
</svg>