<?xml version="1.0" encoding="UTF-8"?>
<svg width="85px" height="90px" viewBox="0 0 85 90" version="1.1" xmlns="http://www.w3.org/2000/svg" xmlns:xlink="http://www.w3.org/1999/xlink">
    <!-- Generator: Sketch 40.2 (33826) - http://www.bohemiancoding.com/sketch -->
    <title>music</title>
    <desc>Created with Sketch.</desc>
    <defs>
        <rect id="path-1" x="0" y="0" width="90" height="90"></rect>
    </defs>
    <g id="Page-1" stroke="none" stroke-width="1" fill="none" fill-rule="evenodd">
        <g id="Source-File" transform="translate(-1138.000000, -1135.000000)">
            <g id="music" transform="translate(1135.000000, 1135.000000)">
                <mask id="mask-2" fill="white">
                    <use xlink:href="#path-1"></use>
                </mask>
                <g id="bg"></g>
                <path d="M79.2331839,12.8135416 L79.2331839,57.9443919 C77.2141784,57.2264109 74.9518576,56.8242304 72.5627803,56.8242304 C64.0370392,56.8242304 57.1255605,61.9460573 57.1255605,68.2641509 C57.1255605,74.5822446 64.0370392,79.7040715 72.5627803,79.7040715 C80.5675161,79.7040715 87.1492553,75.189104 87.9237784,69.408143 L88,69.408143 L88,8.20158888 L88,0 L25.1076233,12.5898709 L25.1076233,19.6444886 L25.1076233,68.2403204 C23.0886179,67.5223394 20.8262971,67.1201589 18.4372197,67.1201589 C9.91147869,67.1201589 3,72.2419858 3,78.5600794 C3,84.8781731 9.91147869,90 18.4372197,90 C26.4419555,90 33.0236948,85.4850325 33.7982178,79.7040715 L33.8744395,79.7040715 L33.8744395,21.8935091 L79.2331839,12.8135416 L79.2331839,12.8135416 Z" fill="#000000" mask="url(#mask-2)"></path>
            </g>
        </g>
    </g>
</svg>