<?xml version="1.0" encoding="UTF-8"?>
<svg width="78px" height="90px" viewBox="0 0 78 90" version="1.1" xmlns="http://www.w3.org/2000/svg" xmlns:xlink="http://www.w3.org/1999/xlink">
    <!-- Generator: Sketch 40.2 (33826) - http://www.bohemiancoding.com/sketch -->
    <title>notification</title>
    <desc>Created with Sketch.</desc>
    <defs>
        <rect id="path-1" x="0" y="0" width="90" height="90"></rect>
    </defs>
    <g id="Page-1" stroke="none" stroke-width="1" fill="none" fill-rule="evenodd">
        <g id="Source-File" transform="translate(-991.000000, -384.000000)">
            <g id="notification" transform="translate(985.000000, 384.000000)">
                <mask id="mask-2" fill="white">
                    <use xlink:href="#path-1"></use>
                </mask>
                <g id="bg"></g>
                <path d="M56.9693847,6.15618424 C66.7312477,10.654643 73.5023522,20.4857655 73.5023522,31.8897638 C73.5023522,32.3650272 73.4905921,32.8375589 73.4673453,33.3070866 L73.5023522,33.3070866 L73.5023522,61.6549075 C73.5023522,65.567983 76.0995847,70.5483332 79.3192223,72.7898232 L81.9362089,74.6117516 C85.1487776,76.8483202 84.5829411,78.6614173 80.6649179,78.6614173 L9.33687952,78.6614173 C5.42219625,78.6614173 4.84595089,76.8532416 8.06558852,74.6117516 L10.6825751,72.7898232 C13.8951437,70.5532546 16.4994452,65.5645258 16.4994452,61.6549075 L16.4994452,33.3070866 L16.5344521,33.3070866 C16.5112054,32.8375589 16.4994452,32.3650272 16.4994452,31.8897638 C16.4994452,20.4854675 23.2709036,10.6541293 33.0331779,6.15583165 C32.9381865,5.77286773 32.887781,5.3725083 32.887781,4.96062992 C32.887781,2.22094967 35.101921,0 37.848781,0 L52.1530164,0 C54.8929011,0 57.1140165,2.22652436 57.1140165,4.96062992 C57.1140165,5.37282242 57.0638971,5.77327292 56.9693847,6.15618424 L56.9693847,6.15618424 Z M54.9764075,81.496063 C54.9764075,86.1926577 50.5102201,90 45.0008987,90 C39.4915774,90 35.02539,86.1926577 35.02539,81.496063 L54.9764075,81.496063 L54.9764075,81.496063 Z" fill="#000000" mask="url(#mask-2)"></path>
            </g>
        </g>
    </g>
</svg>