<?xml version="1.0" encoding="UTF-8"?>
<svg width="82px" height="82px" viewBox="0 0 82 82" version="1.1" xmlns="http://www.w3.org/2000/svg" xmlns:xlink="http://www.w3.org/1999/xlink">
    <!-- Generator: Sketch 40.2 (33826) - http://www.bohemiancoding.com/sketch -->
    <title>phone</title>
    <desc>Created with Sketch.</desc>
    <defs>
        <rect id="path-1" x="0" y="0" width="90" height="90"></rect>
    </defs>
    <g id="Page-1" stroke="none" stroke-width="1" fill="none" fill-rule="evenodd">
        <g id="Source-File" transform="translate(-1139.000000, -689.000000)">
            <g id="phone" transform="translate(1135.000000, 685.000000)">
                <mask id="mask-2" fill="white">
                    <use xlink:href="#path-1"></use>
                </mask>
                <g id="bg"></g>
                <path d="M1.99723824,47.8125658 C1.99723824,43.915087 4.9395831,39.6261681 8.6258502,38.3361528 C8.6258502,38.3361528 25.4972382,30.9933325 48.9972382,30.9933325 C72.4972382,30.9933325 89.3873407,38.3424216 89.3873407,38.3424216 C93.0378863,39.6751589 95.9972382,43.9178422 95.9972382,47.8125658 L95.9972382,63.3908611 C95.9972382,65.9860035 93.9806282,67.5218311 91.4802183,66.8176246 L72.7842581,61.5521607 C70.2895769,60.8495675 68.2672382,58.1737649 68.2672382,55.5704616 L68.2672382,50.5177796 C68.2672382,50.5177796 58.3972382,48.0772237 48.9972382,48.0772237 C39.5972382,48.0772237 30.1972382,50.5177796 30.1972382,50.5177796 L30.1972382,55.5704616 C30.1972382,58.1714696 28.1691637,60.8416632 25.6664203,61.5347793 L6.52805611,66.8350059 C4.02575449,67.5279996 1.99723824,65.9902983 1.99723824,63.3908611 L1.99723824,47.8125658 L1.99723824,47.8125658 Z" fill="#000000" mask="url(#mask-2)" transform="translate(48.997238, 48.997238) rotate(135.000000) translate(-48.997238, -48.997238) "></path>
            </g>
        </g>
    </g>
</svg>