<?xml version="1.0" encoding="UTF-8"?>
<svg width="90px" height="90px" viewBox="0 0 90 90" version="1.1" xmlns="http://www.w3.org/2000/svg" xmlns:xlink="http://www.w3.org/1999/xlink">
    <!-- Generator: Sketch 40.2 (33826) - http://www.bohemiancoding.com/sketch -->
    <title>refresh</title>
    <desc>Created with Sketch.</desc>
    <defs>
        <rect id="path-1" x="0" y="0" width="90" height="90"></rect>
    </defs>
    <g id="Page-1" stroke="none" stroke-width="1" fill="none" fill-rule="evenodd">
        <g id="Source-File" transform="translate(-535.000000, -835.000000)">
            <g id="refresh" transform="translate(535.000000, 835.000000)">
                <mask id="mask-2" fill="white">
                    <use xlink:href="#path-1"></use>
                </mask>
                <g id="bg"></g>
                <path d="M69.8968695,7.72755082 C62.7668958,2.99581729 54.2063024,0.238535413 45,0.238535413 C20.1471863,0.238535413 0,20.3323237 0,45.1192677 C0,69.9062117 20.1471863,90 45,90 C69.8528137,90 90,69.9062117 90,45.1192677 C90,42.3025943 89.7398395,39.5465235 89.2421769,36.8736539 L81.7904273,37.8413169 C82.255959,40.195459 82.5,42.6289395 82.5,45.1192677 C82.5,65.7750544 65.7106781,82.519878 45,82.519878 C24.2893219,82.519878 7.5,65.7750544 7.5,45.1192677 C7.5,24.463481 24.2893219,7.71865746 45,7.71865746 C52.8436362,7.71865746 60.1248242,10.1204021 66.1445606,14.2267405 L61.252571,22.699915 C60.3127596,24.3277162 61.0634494,25.4557795 62.9330457,25.212999 L82.0567551,22.7296486 C83.9378577,22.485374 84.8545995,20.8790952 84.1300554,19.1385871 L76.7188453,1.33529377 C75.989842,-0.415926192 74.643709,-0.494216395 73.7022133,1.13650207 L69.8968695,7.72755082 L69.8968695,7.72755082 Z" fill="#000000" mask="url(#mask-2)"></path>
            </g>
        </g>
    </g>
</svg>