<?xml version="1.0" encoding="UTF-8"?>
<svg width="90px" height="90px" viewBox="0 0 90 90" version="1.1" xmlns="http://www.w3.org/2000/svg" xmlns:xlink="http://www.w3.org/1999/xlink">
    <!-- Generator: Sketch 40.2 (33826) - http://www.bohemiancoding.com/sketch -->
    <title>setting</title>
    <desc>Created with Sketch.</desc>
    <defs>
        <rect id="path-1" x="0" y="0" width="90" height="90"></rect>
    </defs>
    <g id="Page-1" stroke="none" stroke-width="1" fill="none" fill-rule="evenodd">
        <g id="Source-File" transform="translate(-235.000000, -534.000000)">
            <g id="setting" transform="translate(235.000000, 534.000000)">
                <mask id="mask-2" fill="white">
                    <use xlink:href="#path-1"></use>
                </mask>
                <g id="bg"></g>
                <path d="M39.9272451,85.0729019 C42.7288503,82.3357496 47.2701995,82.3348212 50.0727549,85.0729019 L55.1158735,90 C60.3594607,88.8263729 65.2657937,86.75969 69.6668588,83.9679648 L69.7488695,76.9203714 C69.794429,73.0052197 73.0038918,69.7944444 76.9203714,69.7488695 L83.9679648,69.6668588 C86.75969,65.2657937 88.8263729,60.3594607 90,55.1158735 L85.0729019,50.0727549 C82.3357496,47.2711497 82.3348212,42.7298005 85.0729019,39.9272451 L90,34.8841265 C88.8263729,29.6405393 86.75969,24.7342063 83.9679648,20.3331412 L76.9203714,20.2511305 C73.0052197,20.205571 69.7944444,16.9961082 69.7488695,13.0796286 L69.6668588,6.03203521 C65.2657937,3.24031003 60.3594607,1.17362714 55.1158735,0 L50.0727549,4.92709813 C47.2711497,7.66425042 42.7298005,7.66517882 39.9272451,4.92709813 L34.8841265,0 C29.6405393,1.17362714 24.7342063,3.24031003 20.3331412,6.03203521 L20.2511305,13.0796286 C20.205571,16.9947803 16.9961082,20.2055556 13.0796286,20.2511305 L6.03203521,20.3331412 C3.24031003,24.7342063 1.17362714,29.6405393 0,34.8841265 L4.92709813,39.9272451 C7.66425042,42.7288503 7.66517882,47.2701995 4.92709813,50.0727549 L1.00816251e-14,55.1158735 C1.17362714,60.3594607 3.24031003,65.2657937 6.03203521,69.6668588 L13.0796286,69.7488695 C16.9947803,69.794429 20.2055556,73.0038918 20.2511305,76.9203714 L20.3331412,83.9679648 C24.7342063,86.75969 29.6405393,88.8263729 34.8841265,90 L39.9272451,85.0729019 L39.9272451,85.0729019 Z M45,66.2829389 C56.7542426,66.2829389 66.2829389,56.7542426 66.2829389,45 C66.2829389,33.2457574 56.7542426,23.7170611 45,23.7170611 C33.2457574,23.7170611 23.7170611,33.2457574 23.7170611,45 C23.7170611,56.7542426 33.2457574,66.2829389 45,66.2829389 L45,66.2829389 Z" fill="#000000" mask="url(#mask-2)"></path>
            </g>
        </g>
    </g>
</svg>