<?xml version="1.0" encoding="UTF-8"?>
<svg width="80px" height="90px" viewBox="0 0 80 90" version="1.1" xmlns="http://www.w3.org/2000/svg" xmlns:xlink="http://www.w3.org/1999/xlink">
    <!-- Generator: Sketch 41.2 (35397) - http://www.bohemiancoding.com/sketch -->
    <title>Combined Shape</title>
    <desc>Created with Sketch.</desc>
    <defs></defs>
    <g id="Page-1" stroke="none" stroke-width="1" fill="none" fill-rule="evenodd">
        <path d="M43.592455,64.2864522 L52.2123703,72.7881922 C53.6277451,74.1841628 53.6232757,76.4518864 52.2088292,77.8469414 C50.7914988,79.2448408 48.4918194,79.2431319 47.0797627,77.8504339 L43.592455,74.4109357 L43.592455,86.4163547 C43.592455,88.3955473 41.9634827,90 39.9631534,90 C37.9587454,90 36.3338517,88.3996843 36.3338517,86.4163547 L36.3338517,74.7016676 L33.1413172,77.8504339 C31.7259424,79.2464045 29.4266971,79.2419964 28.0122506,77.8469414 C26.5949202,76.4490419 26.5966529,74.1808902 28.0087096,72.7881922 L36.3338517,64.5771842 L36.3338517,61.3800019 C36.3338517,55.7345412 32.3599692,53.420859 27.4504101,56.2165341 L24.8799254,57.6802581 L21.7248174,69.2938508 C21.2067543,71.2007821 19.2133148,72.3308264 17.281145,71.8202009 C15.3450356,71.3085342 14.1966965,69.3434027 14.7135451,67.4409418 L15.9899883,62.7424998 L5.44847075,68.7452093 C3.71061436,69.7348057 1.48731728,69.1456412 0.487152589,67.4370547 C-0.515051382,65.7249845 0.0776802219,63.5369195 1.81916912,62.5452547 L12.1054056,56.6879112 L7.74432232,55.5353828 C5.81088441,55.024422 4.66513235,53.0583117 5.18285568,51.1526312 C5.70163463,49.243065 7.69408173,48.1104691 9.62298708,48.6202319 L20.9953427,51.6256695 L23.7380632,50.0638683 C28.6494175,47.2671711 28.6589827,42.7382757 23.7408955,39.9377445 L20.8016142,38.2640147 L9.22792469,41.3226599 C7.29448678,41.8336206 5.30551663,40.6959412 4.78779329,38.7902606 C4.26901434,36.8806945 5.42035457,34.9172719 7.34925992,34.4075091 L11.911677,33.201773 L1.81916912,27.4547453 C0.0813127335,26.4651489 -0.513012098,24.2715318 0.487152589,22.5629453 C1.48935656,20.8508751 3.70698185,20.2631259 5.44847075,21.2547907 L15.5409787,27.0018184 L14.3184827,22.50195 C13.8004196,20.5950187 14.9539128,18.6333165 16.8860826,18.1226909 C18.822192,17.6110242 20.8129064,18.7465801 21.329755,20.649041 L24.4309158,32.0640601 L27.4499164,33.7831849 C32.3563784,36.5770963 36.3338517,34.2622004 36.3338517,28.6089032 L36.3338517,25.2021842 L27.861323,16.8458102 C26.4459482,15.4498396 26.4504176,13.182116 27.864864,11.787061 C29.2821945,10.3891615 31.5818739,10.3908704 32.9939306,11.7835685 L36.3338517,15.0777007 L36.3338517,3.58364532 C36.3338517,1.60445266 37.962824,0 39.9631534,0 C41.9675613,0 43.592455,1.6003157 43.592455,3.58364532 L43.592455,15.0777007 L46.9323761,11.7835685 C48.3477509,10.3875979 50.6469962,10.3920059 52.0614427,11.787061 C53.4787731,13.1849604 53.4770404,15.4531122 52.0649837,16.8458102 L43.592455,25.2021842 L43.592455,28.5356917 C43.592455,34.1813619 47.5638635,36.4966227 52.4848046,33.6944664 L55.5690842,31.9381695 L58.670245,20.5231503 C59.1883081,18.616219 61.1817476,17.4861747 63.1139174,17.9968003 C65.0500268,18.508467 66.1983659,20.4735985 65.6815173,22.3760594 L64.4590213,26.8759277 L74.5515293,21.1289 C76.2893856,20.1393037 78.5126827,20.7284682 79.5128474,22.4370547 C80.5150514,24.1491249 79.9223198,26.3371898 78.1808309,27.3288546 L68.088323,33.0758823 L72.6507401,34.2816184 C74.584178,34.7925791 75.72993,36.7586894 75.2122067,38.66437 C74.6934278,40.5739362 72.7009807,41.7065321 70.7720753,41.1967692 L59.1983858,38.1381241 L56.0323055,39.9410012 C51.125674,42.7350091 51.1243461,47.2642348 56.0293838,50.0573351 L58.7493762,51.6061941 L70.5243995,48.4943413 C72.4578374,47.9833806 74.4468076,49.1210599 74.9645309,51.0267405 C75.4833099,52.9363067 74.3319696,54.8997293 72.4030643,55.4094921 L67.6393133,56.6684358 L78.1808309,62.6711454 C79.9186873,63.6607417 80.5130121,65.8543588 79.5128474,67.5629453 C78.5106434,69.2750155 76.2930182,69.8627648 74.5515293,68.8711 L64.2652928,63.0137564 L65.4338415,67.3150511 C65.9519046,69.2219824 64.7984114,71.1836847 62.8662416,71.6943102 C60.9301322,72.2059769 58.9394178,71.0704211 58.4225692,69.1679602 L55.3753556,57.9515147 L52.4778428,56.3015693 C47.5705786,53.5072011 43.592455,55.8225905 43.592455,61.4720424 L43.592455,64.2864522 Z" id="Combined-Shape" fill="#000000"></path>
    </g>
</svg>