<?xml version="1.0" encoding="UTF-8"?>
<svg width="91px" height="70px" viewBox="0 0 91 70" version="1.1" xmlns="http://www.w3.org/2000/svg" xmlns:xlink="http://www.w3.org/1999/xlink">
    <!-- Generator: Sketch 41.2 (35397) - http://www.bohemiancoding.com/sketch -->
    <title>Thumbs Up</title>
    <desc>Created with Sketch.</desc>
    <defs></defs>
    <g id="Page-1" stroke="none" stroke-width="1" fill="none" fill-rule="evenodd">
        <path d="M0,29.2266337 C0,25.3454541 3.14600629,22.1991363 7.0259696,22.1991363 L16.3913553,22.1991363 C20.2716911,22.1991363 23.4173249,25.3354844 23.4173249,29.2266337 L23.4173249,62.9725025 C23.4173249,66.8536822 20.2713186,70 16.3913553,70 L7.0259696,70 C3.14563374,70 0,66.8636518 0,62.9725025 L0,29.2266337 Z M43.322051,17.5083125 C43.322051,20.0989829 41.2240673,22.1991363 38.6358117,22.1991363 L37.4664334,22.1991363 C33.5872344,22.1991363 30.4425223,25.3354844 30.4425223,29.2266337 L30.4425223,62.9725025 C30.4425223,66.8536822 33.5919682,70 37.4695788,70 L73.7627143,70 C77.6436504,70 81.5400118,66.9371251 82.4611149,63.1767018 L89.7125076,33.572737 C91.2511318,27.2912708 87.249259,22.1991363 80.7898531,22.1991363 L62.0587844,22.1991363 C60.7638942,22.1991363 59.7141784,21.1446628 59.7141784,19.86321 L59.7141784,17.223855 C59.7141784,12.0517205 56.2077135,5.55821716 51.8781902,2.71753253 L49.1936851,0.956176399 C45.9508711,-1.17149707 43.322051,0.256628799 43.322051,4.12753574 L43.322051,17.5083125 Z" id="Thumbs-Up" fill="#000000"></path>
    </g>
</svg>