<?xml version="1.0" encoding="UTF-8"?>
<svg width="86px" height="87px" viewBox="0 0 86 87" version="1.1" xmlns="http://www.w3.org/2000/svg" xmlns:xlink="http://www.w3.org/1999/xlink">
    <!-- Generator: Sketch 40.2 (33826) - http://www.bohemiancoding.com/sketch -->
    <title>tools</title>
    <desc>Created with Sketch.</desc>
    <defs>
        <rect id="path-1" x="0" y="0" width="90" height="90.9677419"></rect>
    </defs>
    <g id="Page-1" stroke="none" stroke-width="1" fill="none" fill-rule="evenodd">
        <g id="tools" transform="translate(-2.000000, -2.000000)">
            <g id="Page-1">
                <g id="Source-File">
                    <g id="tools">
                        <g id="Clipped">
                            <mask id="mask-2" fill="white">
                                <use xlink:href="#path-1"></use>
                            </mask>
                            <g id="path-1"></g>
                            <path d="M57.3174504,47.2815803 C67.6380264,43.4451282 75,33.4184052 75,21.6532678 C75,10.8152368 68.7525753,1.45243679 59.7,-2.95495496 L59.7,17.1037182 L48,26.2028174 L36.3,17.1037182 L36.3,-2.95495496 C27.2474247,1.45243679 21,10.8152368 21,21.6532678 C21,33.2911272 28.2035482,43.227982 38.3486429,47.1549017 L36.3080532,89.8584981 C36.0679442,94.8832807 41.2265497,98.954955 47.83002,98.954955 C54.4349422,98.954955 59.5920505,94.8823323 59.3519868,89.8584981 L57.3174504,47.2815803 L57.3174504,47.2815803 L57.3174504,47.2815803 Z M48,88.036036 C50.4852814,88.036036 52.5,85.9991333 52.5,83.4864865 C52.5,80.9738397 50.4852814,78.936937 48,78.936937 C45.5147186,78.936937 43.5,80.9738397 43.5,83.4864865 C43.5,85.9991333 45.5147186,88.036036 48,88.036036 L48,88.036036 L48,88.036036 Z" id="Shape" fill="#000000" mask="url(#mask-2)" transform="translate(48.000000, 48.000000) rotate(-45.000000) translate(-48.000000, -48.000000) "></path>
                        </g>
                    </g>
                </g>
            </g>
        </g>
    </g>
</svg>