<?xml version="1.0" encoding="UTF-8"?>
<svg width="88px" height="90px" viewBox="0 0 88 90" version="1.1" xmlns="http://www.w3.org/2000/svg" xmlns:xlink="http://www.w3.org/1999/xlink">
    <!-- Generator: Sketch 40.2 (33826) - http://www.bohemiancoding.com/sketch -->
    <title>trash</title>
    <desc>Created with Sketch.</desc>
    <defs>
        <rect id="path-1" x="0" y="0" width="90" height="90"></rect>
    </defs>
    <g id="Page-1" stroke="none" stroke-width="1" fill="none" fill-rule="evenodd">
        <g id="Source-File" transform="translate(-386.000000, -835.000000)">
            <g id="trash" transform="translate(385.000000, 835.000000)">
                <mask id="mask-2" fill="white">
                    <use xlink:href="#path-1"></use>
                </mask>
                <g id="bg"></g>
                <path d="M73.3554315,27.5806452 C74.9760627,27.5806452 76.1433897,28.8700343 75.962105,30.4660739 L69.5277387,87.1145713 C69.3467336,88.7081495 67.8803155,90 66.2633149,90 L23.7366851,90 C22.1147987,90 20.6535459,88.7106109 20.4722613,87.1145713 L14.037895,30.4660739 C13.8568898,28.8724956 15.0172219,27.5806452 16.6445685,27.5806452 L73.3554315,27.5806452 L73.3554315,27.5806452 Z M1,15.974828 C1,14.3675071 2.31227123,13.0645161 3.92791748,13.0645161 L86.0720825,13.0645161 C87.6891267,13.0645161 89,14.3621126 89,15.974828 L89,17.4122688 C89,19.0195896 87.6877287,20.3225806 86.0720825,20.3225806 L3.92791748,20.3225806 C2.31087331,20.3225806 1,19.0249842 1,17.4122688 L1,15.974828 L1,15.974828 Z M23,2.89943957 C23,1.29812331 24.3168326,0 25.9381408,0 L64.0618592,0 C65.6845496,0 67,1.30043876 67,2.89943957 L67,13.0645161 L23,13.0645161 L23,2.89943957 L23,2.89943957 Z M28.8666667,7.25778507 C28.8666667,6.45623573 29.5258271,5.80645161 30.3369438,5.80645161 L59.6630562,5.80645161 C60.4750678,5.80645161 61.1333333,6.45055642 61.1333333,7.25778507 L61.1333333,13.0645161 L28.8666667,13.0645161 L28.8666667,7.25778507 L28.8666667,7.25778507 Z" fill="#000000" mask="url(#mask-2)"></path>
            </g>
        </g>
    </g>
</svg>