<?xml version="1.0" encoding="UTF-8"?>
<svg width="66px" height="90px" viewBox="0 0 66 90" version="1.1" xmlns="http://www.w3.org/2000/svg" xmlns:xlink="http://www.w3.org/1999/xlink">
    <!-- Generator: Sketch 40.2 (33826) - http://www.bohemiancoding.com/sketch -->
    <title>user</title>
    <desc>Created with Sketch.</desc>
    <defs>
        <rect id="path-1" x="0" y="0" width="90" height="90"></rect>
    </defs>
    <g id="Page-1" stroke="none" stroke-width="1" fill="none" fill-rule="evenodd">
        <g id="Source-File" transform="translate(-97.000000, -835.000000)">
            <g id="user" transform="translate(85.000000, 835.000000)">
                <mask id="mask-2" fill="white">
                    <use xlink:href="#path-1"></use>
                </mask>
                <g id="bg"></g>
                <path d="M67.2029718,24.2993278 C65.3253023,11.3725286 58.3351933,0 45,0 C31.6648018,2.10288471e-15 24.6746925,11.3725369 22.7970261,24.299342 C22.6328514,24.2797464 22.4656889,24.2696629 22.2961271,24.2696629 L22.2477011,24.2696629 C19.9737527,24.2696629 18.1395349,26.0816513 18.1395349,28.3168523 L18.1395349,31.0089904 C18.1395349,33.2507594 19.9788235,35.0561798 22.2477011,35.0561798 L22.2961271,35.0561798 C22.3522897,35.0561798 22.4081839,35.0550745 22.4637889,35.0528848 C24.0676231,49.1032575 35.421835,60 45,60 C54.5781655,60 65.9323782,49.1032563 67.5362114,35.0528824 C67.5918211,35.0550737 67.6477154,35.0561798 67.7038729,35.0561798 L67.7522989,35.0561798 C70.0262474,35.0561798 71.8604651,33.2441914 71.8604651,31.0089904 L71.8604651,28.3168523 C71.8604651,26.0750833 70.0211764,24.2696629 67.7522989,24.2696629 L67.7038729,24.2696629 C67.5342667,24.2696629 67.3671068,24.2797433 67.2029718,24.2993278 L67.2029718,24.2993278 Z M30.0231045,60.8076797 L18.9581278,65.8372147 C15.1194207,67.5820815 12,72.354526 12,76.4925436 L12,86.2456208 C12,88.3169803 13.7164126,90 15.8337149,90 L74.1662851,90 C76.2854333,90 78,88.3191072 78,86.2456208 L78,76.4925436 C78,72.3507332 74.8847401,67.5839728 71.0418722,65.8372147 L60.481681,61.0371277 C55.7759095,65.105491 50.3834866,67.5 45.383721,67.5 C40.2906769,67.5 34.7901878,65.015311 30.0231045,60.8076797 L30.0231045,60.8076797 Z" fill="#000000" mask="url(#mask-2)"></path>
            </g>
        </g>
    </g>
</svg>