<?xml version="1.0" encoding="UTF-8"?>
<svg width="52px" height="90px" viewBox="0 0 52 90" version="1.1" xmlns="http://www.w3.org/2000/svg" xmlns:xlink="http://www.w3.org/1999/xlink">
    <!-- Generator: Sketch 41.2 (35397) - http://www.bohemiancoding.com/sketch -->
    <title>Combined Shape</title>
    <desc>Created with Sketch.</desc>
    <defs></defs>
    <g id="Page-1" stroke="none" stroke-width="1" fill="none" fill-rule="evenodd">
        <path d="M21.53125,65.2702703 L21.53125,51.5101129 C9.30118492,49.3959868 0,38.7549122 0,25.9459459 C0,11.6163957 11.6405965,0 26,0 C40.3594035,0 52,11.6163957 52,25.9459459 C52,38.4697139 43.1083955,48.9210539 31.28125,51.356285 L31.28125,65.2702703 L41.430706,65.2702703 C44.1268464,65.2702703 46.3125,67.4538115 46.3125,70.1351351 C46.3125,72.8219258 44.1295361,75 41.430706,75 L31.28125,75 L31.28125,85.1283553 C31.28125,87.8188904 29.0931597,90 26.40625,90 C23.7138618,90 21.53125,87.8215745 21.53125,85.1283553 L21.53125,75 L11.381794,75 C8.68565361,75 6.5,72.8164587 6.5,70.1351351 C6.5,67.4483445 8.68296391,65.2702703 11.381794,65.2702703 L21.53125,65.2702703 Z M37.4904852,29.2468117 L26,40.7134082 L14.5095148,29.2468117 C11.3365049,26.0803986 11.3365049,20.9466285 14.5095148,17.7802153 C17.6825247,14.6138021 22.8269901,14.6138021 26,17.7802153 C29.1730099,14.6138021 34.3174753,14.6138021 37.4904852,17.7802153 C40.6634951,20.9466285 40.6634951,26.0803986 37.4904852,29.2468117 Z" id="Combined-Shape" fill="#000000"></path>
    </g>
</svg>